<?xml version="1.0" encoding="UTF-8"?>
<svg id="Capa_1" xmlns="http://www.w3.org/2000/svg" version="1.1" viewBox="0 0 40 40">
  <!-- Generator: Adobe Illustrator 29.0.0, SVG Export Plug-In . SVG Version: 2.1.0 Build 186)  -->
  <defs>
    <style>
      .st0 {
        display: none;
      }
    </style>
  </defs>
  <path class="st0" d="M40,0v40H0V0h40ZM20.7,25.3c6-.5,12.4-4.6,13.9-10.7,1.2-4.9-.6-10.2-3.1-14.3-.2,0-2.4,1.7-2.7,2-3.1,2.6-8,6.9-9.5,10.6s-1.3,7.4-.3,10.7,0,.3.2.2,2.3-2,2.7-2.4c1.5-1.7,2.8-3.6,4.1-5.4l1.8-3.4c-.5,3.1-2.2,5.9-3.9,8.5l-3.2,4.2ZM17.3,24.4c.4-2,.7-4,0-6s-4-5.1-5.8-6.7-1.5-1.2-1.6-1.1c-1.3,2.7-2.5,5.4-1.7,8.4s4.6,5.9,8.2,6.2c-1.5-2-3.5-4.3-4.1-6.9s-.2-.5,0-.4c.9,2,2.4,4.3,4,5.8s.9.8,1.1.7ZM34.7,19.5c-1.3,1.8-2.8,3.3-4.7,4.5s-1.9,1-2.1,1.2-.2.3-.2.6c-.2,1.9-.2,6,0,8s2,3.8,4.4,3.4,2.6-1.7,2.6-2.7v-15.1ZM8.3,23.4v11.2c0,.6,1,1.9,1.5,2.2,1.7,1.1,4.3.4,5.1-1.5s0-5.8.4-8.1c-2.7-.7-5.1-1.9-7-3.9ZM24.9,26.5c-2.2.7-4.6.9-7,.8v6.7c0,.2.4,1.4.5,1.6,1,1.9,3.8,2.3,5.4.9s1.1-1.5,1.1-1.9v-8.1Z"/>
  <path d="M19.7,26.3l3.2-4.2c1.7-2.6,3.5-5.4,3.9-8.5l-1.8,3.4c-1.3,1.8-2.6,3.8-4.1,5.4s-2.3,2.3-2.7,2.4-.2,0-.2-.2c-1-3.3-1.1-7.5.3-10.7s6.4-8,9.5-10.6,2.5-2.1,2.7-2c2.5,4.1,4.3,9.4,3.1,14.3-1.5,6.1-7.9,10.2-13.9,10.7Z"/>
  <path d="M33.7,20.5v15.1c0,1-1.6,2.5-2.6,2.7-2.4.4-4.2-1-4.4-3.4s-.2-6.1,0-8,0-.4.2-.6,1.7-.9,2.1-1.2c1.8-1.2,3.3-2.7,4.7-4.5Z"/>
  <path d="M16.3,25.4c-.1.1-.9-.6-1.1-.7-1.6-1.5-3.1-3.8-4-5.8-.3,0-.1.3,0,.4.6,2.5,2.6,4.8,4.1,6.9-3.5-.3-7.2-2.6-8.2-6.2s.4-5.7,1.7-8.4c.1,0,1.4,1,1.6,1.1,1.9,1.6,5,4.4,5.8,6.7s.4,4,0,6Z"/>
  <path d="M7.3,24.4c1.9,2,4.3,3.2,7,3.9-.3,2.2.5,6.1-.4,8.1s-3.4,2.6-5.1,1.5-1.5-1.6-1.5-2.2v-11.2Z"/>
  <path d="M23.9,27.5v8.1c0,.4-.8,1.6-1.1,1.9-1.6,1.4-4.4,1.1-5.4-.9s-.5-1.4-.5-1.6v-6.7c2.4,0,4.7-.1,7-.8Z"/>
</svg>