<svg xmlns="http://www.w3.org/2000/svg" viewBox="0 0 32 32" fill="none">
  <circle cx="16" cy="16" r="14" fill="#21759B"/>
  <path d="M16 5C9.92 5 5 9.92 5 16C5 22.08 9.92 27 16 27C22.08 27 27 22.08 27 16C27 9.92 22.08 5 16 5ZM6.5 16C6.5 14.5 6.83 13.08 7.42 11.79L12.04 24.46C8.75 22.92 6.5 19.71 6.5 16ZM16 25.5C14.96 25.5 13.96 25.33 13.04 25.04L16.12 16.5L19.25 24.08C19.29 24.17 19.33 24.25 19.38 24.33C18.33 25.08 17.21 25.5 16 25.5ZM17.42 10.79C18.08 10.75 18.67 10.67 18.67 10.67C19.25 10.58 19.17 9.71 18.58 9.75C18.58 9.75 16.75 9.92 15.58 9.92C14.5 9.92 12.62 9.75 12.62 9.75C12.04 9.71 11.96 10.62 12.54 10.67C12.54 10.67 13.08 10.75 13.67 10.79L15.29 15.21L13 22.21L8.54 10.79C9.21 10.75 9.79 10.67 9.79 10.67C10.38 10.58 10.29 9.71 9.71 9.75C9.71 9.75 7.88 9.92 6.71 9.92C6.5 9.92 6.25 9.92 5.96 9.92C7.75 7.04 10.67 5 14.08 5C16.58 5 18.88 5.96 20.62 7.54C20.58 7.54 20.54 7.5 20.46 7.5C19.42 7.5 18.67 8.42 18.67 9.42C18.67 10.33 19.21 11.08 19.79 12C20.25 12.75 20.79 13.71 20.79 15.08C20.79 16.04 20.42 17.17 19.92 18.71L18.79 22.17L17.42 10.79ZM21.62 11.17C23.46 13.04 24.58 15.67 24.5 18.54C24.5 20.67 23.88 22.62 22.79 24.25L19.42 14.42C19.42 14.38 19.46 14.33 19.46 14.29C20.17 12.5 20.42 11.04 20.42 9.79C20.42 9.33 20.38 8.92 20.33 8.54C20.79 9.33 21.25 10.21 21.62 11.17Z" fill="white"/>
</svg>
